<svg width="3000" height="651" xmlns="http://www.w3.org/2000/svg"><g><path d="M-84,-31L-64,682L-69,482Z" fill="#99dee4" stroke="#99dee4"></path><path d="M-84,-31L-69,482L-71,276Z" fill="#ccfae0" stroke="#ccfae0"></path><path d="M-84,-31L-71,276L-40,157Z" fill="#f9ffdb" stroke="#f9ffdb"></path><path d="M-84,-31L-40,157L-56,20Z" fill="#ffffe2" stroke="#ffffe2"></path><path d="M-84,-31L-56,20L84,-50Z" fill="#ffffed" stroke="#ffffed"></path><path d="M-84,-31L84,-50L149,-58Z" fill="#feffea" stroke="#feffea"></path><path d="M84,-50L-56,20L60,80Z" fill="#ffffe6" stroke="#ffffe6"></path><path d="M84,-50L60,80L159,91Z" fill="#fdfedc" stroke="#fdfedc"></path><path d="M84,-50L159,91L149,-58Z" fill="#fcfee5" stroke="#fcfee5"></path><path d="M149,-58L159,91L303,34Z" fill="#fafddb" stroke="#fafddb"></path><path d="M149,-58L303,34L311,-71Z" fill="#f9fddf" stroke="#f9fddf"></path><path d="M149,-58L311,-71L576,-93Z" fill="#f7fcda" stroke="#f7fcda"></path><path d="M311,-71L303,34L382,-23Z" fill="#f7fcdb" stroke="#f7fcdb"></path><path d="M311,-71L382,-23L469,-32Z" fill="#f6fcd8" stroke="#f6fcd8"></path><path d="M311,-71L469,-32L576,-93Z" fill="#f2fad9" stroke="#f2fad9"></path><path d="M382,-23L303,34L421,84Z" fill="#f6fcd0" stroke="#f6fcd0"></path><path d="M382,-23L421,84L469,-32Z" fill="#f4fbd6" stroke="#f4fbd6"></path><path d="M469,-32L421,84L518,18Z" fill="#f1fad2" stroke="#f1fad2"></path><path d="M469,-32L518,18L576,-93Z" fill="#eff9d9" stroke="#eff9d9"></path><path d="M576,-93L518,18L614,54Z" fill="#ecf8d9" stroke="#ecf8d9"></path><path d="M576,-93L614,54L690,-92Z" fill="#e9f7d9" stroke="#e9f7d9"></path><path d="M576,-93L690,-92L1031,-94Z" fill="#e2f4da" stroke="#e2f4da"></path><path d="M690,-92L614,54L750,89Z" fill="#e7f6d5" stroke="#e7f6d5"></path><path d="M690,-92L750,89L800,-89Z" fill="#e3f4da" stroke="#e3f4da"></path><path d="M690,-92L800,-89L1031,-94Z" fill="#dbf1db" stroke="#dbf1db"></path><path d="M800,-89L750,89L857,73Z" fill="#def2d4" stroke="#def2d4"></path><path d="M800,-89L857,73L942,-24Z" fill="#d8f0db" stroke="#d8f0db"></path><path d="M800,-89L942,-24L1031,-94Z" fill="#d3eedb" stroke="#d3eedb"></path><path d="M942,-24L857,73L900,67Z" fill="#d5efd1" stroke="#d5efd1"></path><path d="M942,-24L900,67L1082,44Z" fill="#ceecd4" stroke="#ceecd4"></path><path d="M942,-24L1082,44L1031,-94Z" fill="#c9eadc" stroke="#c9eadc"></path><path d="M1031,-94L1082,44L1155,-59Z" fill="#c3e8dd" stroke="#c3e8dd"></path><path d="M1031,-94L1155,-59L1407,-86Z" fill="#b9e4de" stroke="#b9e4de"></path><path d="M1031,-94L1407,-86L1705,-89Z" fill="#aadee0" stroke="#aadee0"></path><path d="M1031,-94L1705,-89L2478,-92Z" fill="#95cfe0" stroke="#95cfe0"></path><path d="M1155,-59L1082,44L1183,18Z" fill="#bee6dd" stroke="#bee6dd"></path><path d="M1155,-59L1183,18L1252,-35Z" fill="#b9e4de" stroke="#b9e4de"></path><path d="M1155,-59L1252,-35L1407,-86Z" fill="#b3e2df" stroke="#b3e2df"></path><path d="M1252,-35L1183,18L1301,31Z" fill="#b5e3dd" stroke="#b5e3dd"></path><path d="M1252,-35L1301,31L1348,36Z" fill="#b1e1dc" stroke="#b1e1dc"></path><path d="M1252,-35L1348,36L1407,-86Z" fill="#aee0e0" stroke="#aee0e0"></path><path d="M1407,-86L1348,36L1446,28Z" fill="#a8dee1" stroke="#a8dee1"></path><path d="M1407,-86L1446,28L1507,-39Z" fill="#a4dce1" stroke="#a4dce1"></path><path d="M1407,-86L1507,-39L1571,-47Z" fill="#a1dbe2" stroke="#a1dbe2"></path><path d="M1407,-86L1571,-47L1705,-89Z" fill="#9dd8e1" stroke="#9dd8e1"></path><path d="M1507,-39L1446,28L1623,85Z" fill="#9fdadb" stroke="#9fdadb"></path><path d="M1507,-39L1623,85L1571,-47Z" fill="#9dd7e1" stroke="#9dd7e1"></path><path d="M1571,-47L1623,85L1705,-89Z" fill="#9ad4e1" stroke="#9ad4e1"></path><path d="M1705,-89L1623,85L1740,91Z" fill="#97d1d9" stroke="#97d1d9"></path><path d="M1705,-89L1740,91L1805,-18Z" fill="#94cee0" stroke="#94cee0"></path><path d="M1705,-89L1805,-18L1954,-67Z" fill="#91cbe0" stroke="#91cbe0"></path><path d="M1705,-89L1954,-67L2026,-84Z" fill="#8ec7df" stroke="#8ec7df"></path><path d="M1705,-89L2026,-84L2478,-92Z" fill="#90bbda" stroke="#90bbda"></path><path d="M1805,-18L1740,91L1821,78Z" fill="#92cdd3" stroke="#92cdd3"></path><path d="M1805,-18L1821,78L1907,69Z" fill="#90cad4" stroke="#90cad4"></path><path d="M1805,-18L1907,69L1954,-67Z" fill="#8ec7df" stroke="#8ec7df"></path><path d="M1954,-67L1907,69L2025,38Z" fill="#8fc2d9" stroke="#8fc2d9"></path><path d="M1954,-67L2025,38L2026,-84Z" fill="#8fc0dc" stroke="#8fc0dc"></path><path d="M2026,-84L2025,38L2120,-59Z" fill="#8fbcda" stroke="#8fbcda"></path><path d="M2026,-84L2120,-59L2373,-82Z" fill="#90b4d6" stroke="#90b4d6"></path><path d="M2026,-84L2373,-82L2478,-92Z" fill="#90acd2" stroke="#90acd2"></path><path d="M2120,-59L2025,38L2126,68Z" fill="#90bad5" stroke="#90bad5"></path><path d="M2120,-59L2126,68L2227,-17Z" fill="#90b5d7" stroke="#90b5d7"></path><path d="M2120,-59L2227,-17L2373,-82Z" fill="#91afd4" stroke="#91afd4"></path><path d="M2227,-17L2126,68L2225,93Z" fill="#90b3c9" stroke="#90b3c9"></path><path d="M2227,-17L2225,93L2388,50Z" fill="#90adc7" stroke="#90adc7"></path><path d="M2227,-17L2388,50L2373,-82Z" fill="#8ea9d0" stroke="#8ea9d0"></path><path d="M2373,-82L2388,50L2478,-92Z" fill="#8ca4cc" stroke="#8ca4cc"></path><path d="M2478,-92L2388,50L2504,23Z" fill="#8ba1ca" stroke="#8ba1ca"></path><path d="M2478,-92L2504,23L2618,-60Z" fill="#889cc6" stroke="#889cc6"></path><path d="M2478,-92L2618,-60L2830,-91Z" fill="#8595c1" stroke="#8595c1"></path><path d="M2618,-60L2504,23L2568,62Z" fill="#889ac2" stroke="#889ac2"></path><path d="M2618,-60L2568,62L2656,88Z" fill="#8696ba" stroke="#8696ba"></path><path d="M2618,-60L2656,88L2700,-33Z" fill="#8594c0" stroke="#8594c0"></path><path d="M2618,-60L2700,-33L2830,-91Z" fill="#8390bd" stroke="#8390bd"></path><path d="M2700,-33L2656,88L2810,67Z" fill="#838fb2" stroke="#838fb2"></path><path d="M2700,-33L2810,67L2830,-91Z" fill="#818bba" stroke="#818bba"></path><path d="M2830,-91L2810,67L2888,-51Z" fill="#8087b7" stroke="#8087b7"></path><path d="M2830,-91L2888,-51L3128,-68Z" fill="#8080b2" stroke="#8080b2"></path><path d="M2888,-51L2810,67L2935,26Z" fill="#8085b2" stroke="#8085b2"></path><path d="M2888,-51L2935,26L3057,-27Z" fill="#8080b2" stroke="#8080b2"></path><path d="M2888,-51L3057,-27L3128,-68Z" fill="#8080af" stroke="#8080af"></path><path d="M3057,-27L2935,26L3021,55Z" fill="#8080ab" stroke="#8080ab"></path><path d="M3057,-27L3021,55L3129,24Z" fill="#8080a8" stroke="#8080a8"></path><path d="M3057,-27L3129,24L3128,-68Z" fill="#8080ab" stroke="#8080ab"></path><path d="M3128,-68L3129,24L3150,467Z" fill="#798095" stroke="#798095"></path><path d="M-56,20L-40,157L60,80Z" fill="#ffffd7" stroke="#ffffd7"></path><path d="M60,80L-40,157L71,187Z" fill="#f8ffd6" stroke="#f8ffd6"></path><path d="M60,80L71,187L159,91Z" fill="#f9fed2" stroke="#f9fed2"></path><path d="M159,91L71,187L172,194Z" fill="#f4fed1" stroke="#f4fed1"></path><path d="M159,91L172,194L308,186Z" fill="#f2fdcd" stroke="#f2fdcd"></path><path d="M159,91L308,186L303,34Z" fill="#f7fdc9" stroke="#f7fdc9"></path><path d="M303,34L308,186L349,176Z" fill="#f2fcc6" stroke="#f2fcc6"></path><path d="M303,34L349,176L421,84Z" fill="#f5fcc4" stroke="#f5fcc4"></path><path d="M421,84L349,176L495,193Z" fill="#ecfbc4" stroke="#ecfbc4"></path><path d="M421,84L495,193L518,18Z" fill="#effac3" stroke="#effac3"></path><path d="M518,18L495,193L614,54Z" fill="#edf8c3" stroke="#edf8c3"></path><path d="M614,54L495,193L640,128Z" fill="#e7f8c4" stroke="#e7f8c4"></path><path d="M614,54L640,128L750,89Z" fill="#e6f6c3" stroke="#e6f6c3"></path><path d="M750,89L640,128L694,188Z" fill="#e0f5c5" stroke="#e0f5c5"></path><path d="M750,89L694,188L811,135Z" fill="#ddf4c5" stroke="#ddf4c5"></path><path d="M750,89L811,135L857,73Z" fill="#dcf2c5" stroke="#dcf2c5"></path><path d="M857,73L811,135L958,180Z" fill="#d2f0c6" stroke="#d2f0c6"></path><path d="M857,73L958,180L900,67Z" fill="#d1eec6" stroke="#d1eec6"></path><path d="M900,67L958,180L1082,44Z" fill="#ccecc6" stroke="#ccecc6"></path><path d="M1082,44L958,180L1059,198Z" fill="#c2eac8" stroke="#c2eac8"></path><path d="M1082,44L1059,198L1153,152Z" fill="#bce7c8" stroke="#bce7c8"></path><path d="M1082,44L1153,152L1183,18Z" fill="#bee6ca" stroke="#bee6ca"></path><path d="M1183,18L1153,152L1304,130Z" fill="#b6e4c9" stroke="#b6e4c9"></path><path d="M1183,18L1304,130L1301,31Z" fill="#b4e2cf" stroke="#b4e2cf"></path><path d="M1301,31L1304,130L1348,36Z" fill="#afe0ce" stroke="#afe0ce"></path><path d="M1348,36L1304,130L1406,192Z" fill="#a8dfcb" stroke="#a8dfcb"></path><path d="M1348,36L1406,192L1446,28Z" fill="#a8decb" stroke="#a8decb"></path><path d="M1446,28L1406,192L1504,188Z" fill="#9edccd" stroke="#9edccd"></path><path d="M1446,28L1504,188L1623,85Z" fill="#9ddacc" stroke="#9ddacc"></path><path d="M1623,85L1504,188L1623,189Z" fill="#94d7cd" stroke="#94d7cd"></path><path d="M1623,85L1623,189L1668,127Z" fill="#94d4cd" stroke="#94d4cd"></path><path d="M1623,85L1668,127L1740,91Z" fill="#96d2cb" stroke="#96d2cb"></path><path d="M1740,91L1668,127L1836,180Z" fill="#8fcfcc" stroke="#8fcfcc"></path><path d="M1740,91L1836,180L1821,78Z" fill="#8ecccb" stroke="#8ecccb"></path><path d="M1821,78L1836,180L1907,69Z" fill="#8cc9ca" stroke="#8cc9ca"></path><path d="M1907,69L1836,180L1903,190Z" fill="#87c8cb" stroke="#87c8cb"></path><path d="M1907,69L1903,190L2027,141Z" fill="#89c3c9" stroke="#89c3c9"></path><path d="M1907,69L2027,141L2025,38Z" fill="#8fc1c6" stroke="#8fc1c6"></path><path d="M2025,38L2027,141L2126,68Z" fill="#8fbcc4" stroke="#8fbcc4"></path><path d="M2126,68L2027,141L2168,172Z" fill="#8bb8c3" stroke="#8bb8c3"></path><path d="M2126,68L2168,172L2216,132Z" fill="#8cb4c1" stroke="#8cb4c1"></path><path d="M2126,68L2216,132L2225,93Z" fill="#8eb3c0" stroke="#8eb3c0"></path><path d="M2225,93L2216,132L2380,162Z" fill="#8badbe" stroke="#8badbe"></path><path d="M2225,93L2380,162L2388,50Z" fill="#8ca9ba" stroke="#8ca9ba"></path><path d="M2388,50L2380,162L2467,154Z" fill="#88a4b7" stroke="#88a4b7"></path><path d="M2388,50L2467,154L2504,23Z" fill="#8ba1b6" stroke="#8ba1b6"></path><path d="M2504,23L2467,154L2568,62Z" fill="#899db2" stroke="#899db2"></path><path d="M2568,62L2467,154L2611,187Z" fill="#829bb1" stroke="#829bb1"></path><path d="M2568,62L2611,187L2658,145Z" fill="#8197ad" stroke="#8197ad"></path><path d="M2568,62L2658,145L2656,88Z" fill="#8496ac" stroke="#8496ac"></path><path d="M2656,88L2658,145L2774,191Z" fill="#7d91aa" stroke="#7d91aa"></path><path d="M2656,88L2774,191L2810,67Z" fill="#7e8ea7" stroke="#7e8ea7"></path><path d="M2810,67L2774,191L2943,188Z" fill="#7887a3" stroke="#7887a3"></path><path d="M2810,67L2943,188L2935,26Z" fill="#7e849f" stroke="#7e849f"></path><path d="M2935,26L2943,188L3021,55Z" fill="#7f809b" stroke="#7f809b"></path><path d="M3021,55L2943,188L3049,182Z" fill="#79809b" stroke="#79809b"></path><path d="M3021,55L3049,182L3115,173Z" fill="#7a8098" stroke="#7a8098"></path><path d="M3021,55L3115,173L3129,24Z" fill="#7f8096" stroke="#7f8096"></path><path d="M3129,24L3115,173L3150,467Z" fill="#587c98" stroke="#587c98"></path><path d="M-40,157L-71,276L28,274Z" fill="#d0fbdd" stroke="#d0fbdd"></path><path d="M-40,157L28,274L71,187Z" fill="#dffdd9" stroke="#dffdd9"></path><path d="M71,187L28,274L142,240Z" fill="#cffad7" stroke="#cffad7"></path><path d="M71,187L142,240L172,194Z" fill="#dcfcd3" stroke="#dcfcd3"></path><path d="M172,194L142,240L259,262Z" fill="#cdf9d2" stroke="#cdf9d2"></path><path d="M172,194L259,262L308,186Z" fill="#d5face" stroke="#d5face"></path><path d="M308,186L259,262L407,291Z" fill="#c2f7cb" stroke="#c2f7cb"></path><path d="M308,186L407,291L349,176Z" fill="#d1f8c8" stroke="#d1f8c8"></path><path d="M349,176L407,291L495,193Z" fill="#cdf7c7" stroke="#cdf7c7"></path><path d="M495,193L407,291L499,242Z" fill="#bff5c9" stroke="#bff5c9"></path><path d="M495,193L499,242L640,128Z" fill="#d8f7c6" stroke="#d8f7c6"></path><path d="M640,128L499,242L612,305Z" fill="#c2f4c8" stroke="#c2f4c8"></path><path d="M640,128L612,305L694,188Z" fill="#c8f4c7" stroke="#c8f4c7"></path><path d="M694,188L612,305L745,303Z" fill="#a9edcb" stroke="#a9edcb"></path><path d="M694,188L745,303L814,245Z" fill="#afefca" stroke="#afefca"></path><path d="M694,188L814,245L811,135Z" fill="#caf2c7" stroke="#caf2c7"></path><path d="M811,135L814,245L958,180Z" fill="#c3efc8" stroke="#c3efc8"></path><path d="M958,180L814,245L969,303Z" fill="#a1e9cb" stroke="#a1e9cb"></path><path d="M958,180L969,303L1071,237Z" fill="#99e6cc" stroke="#99e6cc"></path><path d="M958,180L1071,237L1059,198Z" fill="#a9e7ca" stroke="#a9e7ca"></path><path d="M1059,198L1071,237L1153,152Z" fill="#a8e5ca" stroke="#a8e5ca"></path><path d="M1153,152L1071,237L1180,244Z" fill="#9ce3cc" stroke="#9ce3cc"></path><path d="M1153,152L1180,244L1253,240Z" fill="#96e1cd" stroke="#96e1cd"></path><path d="M1153,152L1253,240L1304,130Z" fill="#a7e2cb" stroke="#a7e2cb"></path><path d="M1304,130L1253,240L1345,238Z" fill="#93decd" stroke="#93decd"></path><path d="M1304,130L1345,238L1406,192Z" fill="#97decd" stroke="#97decd"></path><path d="M1406,192L1345,238L1460,255Z" fill="#7ddad0" stroke="#7ddad0"></path><path d="M1406,192L1460,255L1504,188Z" fill="#81d9d0" stroke="#81d9d0"></path><path d="M1504,188L1460,255L1587,270Z" fill="#6fd5d1" stroke="#6fd5d1"></path><path d="M1504,188L1587,270L1623,189Z" fill="#78d4d0" stroke="#78d4d0"></path><path d="M1623,189L1587,270L1680,276Z" fill="#66cfd1" stroke="#66cfd1"></path><path d="M1623,189L1680,276L1668,127Z" fill="#7dd1ce" stroke="#7dd1ce"></path><path d="M1668,127L1680,276L1836,180Z" fill="#7ccece" stroke="#7ccece"></path><path d="M1836,180L1680,276L1838,261Z" fill="#61c8d0" stroke="#61c8d0"></path><path d="M1836,180L1838,261L1888,243Z" fill="#64c5cf" stroke="#64c5cf"></path><path d="M1836,180L1888,243L1903,190Z" fill="#6fc6ce" stroke="#6fc6ce"></path><path d="M1903,190L1888,243L2044,308Z" fill="#59bece" stroke="#59bece"></path><path d="M1903,190L2044,308L2027,141Z" fill="#6cbdcb" stroke="#6cbdcb"></path><path d="M2027,141L2044,308L2168,172Z" fill="#6fb8c7" stroke="#6fb8c7"></path><path d="M2168,172L2044,308L2159,301Z" fill="#54afc9" stroke="#54afc9"></path><path d="M2168,172L2159,301L2282,266Z" fill="#5bacc5" stroke="#5bacc5"></path><path d="M2168,172L2282,266L2216,132Z" fill="#79afc2" stroke="#79afc2"></path><path d="M2216,132L2282,266L2380,162Z" fill="#7aaabf" stroke="#7aaabf"></path><path d="M2380,162L2282,266L2391,293Z" fill="#5ca3bf" stroke="#5ca3bf"></path><path d="M2380,162L2391,293L2443,247Z" fill="#5ea0bc" stroke="#5ea0bc"></path><path d="M2380,162L2443,247L2467,154Z" fill="#75a1b8" stroke="#75a1b8"></path><path d="M2467,154L2443,247L2591,281Z" fill="#5e9ab7" stroke="#5e9ab7"></path><path d="M2467,154L2591,281L2611,187Z" fill="#6798b3" stroke="#6798b3"></path><path d="M2611,187L2591,281L2691,257Z" fill="#5390b1" stroke="#5390b1"></path><path d="M2611,187L2691,257L2658,145Z" fill="#6a92ae" stroke="#6a92ae"></path><path d="M2658,145L2691,257L2774,191Z" fill="#688eab" stroke="#688eab"></path><path d="M2774,191L2691,257L2781,284Z" fill="#4e89ac" stroke="#4e89ac"></path><path d="M2774,191L2781,284L2943,188Z" fill="#5884a7" stroke="#5884a7"></path><path d="M2943,188L2781,284L2946,284Z" fill="#487ea6" stroke="#487ea6"></path><path d="M2943,188L2946,284L3016,249Z" fill="#4e7ba1" stroke="#4e7ba1"></path><path d="M2943,188L3016,249L3049,182Z" fill="#607d9e" stroke="#607d9e"></path><path d="M3049,182L3016,249L3103,314Z" fill="#4a7a9e" stroke="#4a7a9e"></path><path d="M3049,182L3103,314L3115,173Z" fill="#577c9a" stroke="#577c9a"></path><path d="M3115,173L3103,314L3150,467Z" fill="#2a6e9f" stroke="#2a6e9f"></path><path d="M-71,276L-69,482L-64,375Z" fill="#99dee4" stroke="#99dee4"></path><path d="M-71,276L-64,375L28,274Z" fill="#aeefe3" stroke="#aeefe3"></path><path d="M28,274L-64,375L43,348Z" fill="#a4eae2" stroke="#a4eae2"></path><path d="M28,274L43,348L142,240Z" fill="#b6f2db" stroke="#b6f2db"></path><path d="M142,240L43,348L180,350Z" fill="#a9edda" stroke="#a9edda"></path><path d="M142,240L180,350L259,262Z" fill="#b5f1d4" stroke="#b5f1d4"></path><path d="M259,262L180,350L278,395Z" fill="#9ee8d5" stroke="#9ee8d5"></path><path d="M259,262L278,395L407,291Z" fill="#a3ebd0" stroke="#a3ebd0"></path><path d="M407,291L278,395L416,397Z" fill="#94dfcd" stroke="#94dfcd"></path><path d="M407,291L416,397L475,390Z" fill="#92dfcd" stroke="#92dfcd"></path><path d="M407,291L475,390L499,242Z" fill="#a1eacd" stroke="#a1eacd"></path><path d="M499,242L475,390L612,305Z" fill="#9be8cd" stroke="#9be8cd"></path><path d="M612,305L475,390L605,382Z" fill="#8bdcce" stroke="#8bdcce"></path><path d="M612,305L605,382L730,412Z" fill="#85d8cd" stroke="#85d8cd"></path><path d="M612,305L730,412L745,303Z" fill="#8adecf" stroke="#8adecf"></path><path d="M745,303L730,412L811,346Z" fill="#82d9ce" stroke="#82d9ce"></path><path d="M745,303L811,346L814,245Z" fill="#93e4ce" stroke="#93e4ce"></path><path d="M814,245L811,346L969,303Z" fill="#8ce1ce" stroke="#8ce1ce"></path><path d="M969,303L811,346L973,396Z" fill="#74d5d0" stroke="#74d5d0"></path><path d="M969,303L973,396L1081,350Z" fill="#6cd1d1" stroke="#6cd1d1"></path><path d="M969,303L1081,350L1071,237Z" fill="#7bdbd0" stroke="#7bdbd0"></path><path d="M1071,237L1081,350L1180,244Z" fill="#7edccf" stroke="#7edccf"></path><path d="M1180,244L1081,350L1188,375Z" fill="#65d3d3" stroke="#65d3d3"></path><path d="M1180,244L1188,375L1253,240Z" fill="#71d7d1" stroke="#71d7d1"></path><path d="M1253,240L1188,375L1255,390Z" fill="#5bcdd4" stroke="#5bcdd4"></path><path d="M1253,240L1255,390L1345,238Z" fill="#6ad4d2" stroke="#6ad4d2"></path><path d="M1345,238L1255,390L1387,424Z" fill="#4fc6d4" stroke="#4fc6d4"></path><path d="M1345,238L1387,424L1460,255Z" fill="#59ced5" stroke="#59ced5"></path><path d="M1460,255L1387,424L1501,402Z" fill="#42c0d6" stroke="#42c0d6"></path><path d="M1460,255L1501,402L1587,270Z" fill="#4ecad6" stroke="#4ecad6"></path><path d="M1587,270L1501,402L1589,410Z" fill="#3bbbd6" stroke="#3bbbd6"></path><path d="M1587,270L1589,410L1684,354Z" fill="#3cbdd6" stroke="#3cbdd6"></path><path d="M1587,270L1684,354L1680,276Z" fill="#4cc5d5" stroke="#4cc5d5"></path><path d="M1680,276L1684,354L1838,261Z" fill="#49c1d4" stroke="#49c1d4"></path><path d="M1838,261L1684,354L1839,422Z" fill="#34b4d5" stroke="#34b4d5"></path><path d="M1838,261L1839,422L1928,407Z" fill="#2cacd4" stroke="#2cacd4"></path><path d="M1838,261L1928,407L1888,243Z" fill="#3fb9d3" stroke="#3fb9d3"></path><path d="M1888,243L1928,407L2044,308Z" fill="#39b1d2" stroke="#39b1d2"></path><path d="M2044,308L1928,407L2039,348Z" fill="#2fa5d0" stroke="#2fa5d0"></path><path d="M2044,308L2039,348L2159,301Z" fill="#3aa8ce" stroke="#3aa8ce"></path><path d="M2159,301L2039,348L2169,365Z" fill="#34a1cd" stroke="#34a1cd"></path><path d="M2159,301L2169,365L2234,359Z" fill="#339ccb" stroke="#339ccb"></path><path d="M2159,301L2234,359L2282,266Z" fill="#3fa0c9" stroke="#3fa0c9"></path><path d="M2282,266L2234,359L2357,412Z" fill="#3294c7" stroke="#3294c7"></path><path d="M2282,266L2357,412L2391,293Z" fill="#3696c5" stroke="#3696c5"></path><path d="M2391,293L2357,412L2495,381Z" fill="#2987c0" stroke="#2987c0"></path><path d="M2391,293L2495,381L2443,247Z" fill="#3b92be" stroke="#3b92be"></path><path d="M2443,247L2495,381L2591,281Z" fill="#3a8ebb" stroke="#3a8ebb"></path><path d="M2591,281L2495,381L2607,417Z" fill="#267eb9" stroke="#267eb9"></path><path d="M2591,281L2607,417L2681,373Z" fill="#257ab6" stroke="#257ab6"></path><path d="M2591,281L2681,373L2691,257Z" fill="#3685b4" stroke="#3685b4"></path><path d="M2691,257L2681,373L2781,284Z" fill="#3480b1" stroke="#3480b1"></path><path d="M2781,284L2681,373L2779,413Z" fill="#2172b0" stroke="#2172b0"></path><path d="M2781,284L2779,413L2944,400Z" fill="#1c6aac" stroke="#1c6aac"></path><path d="M2781,284L2944,400L2946,284Z" fill="#2872ab" stroke="#2872ab"></path><path d="M2946,284L2944,400L3027,362Z" fill="#2166a6" stroke="#2166a6"></path><path d="M2946,284L3027,362L3016,249Z" fill="#3371a3" stroke="#3371a3"></path><path d="M3016,249L3027,362L3103,314Z" fill="#2f70a2" stroke="#2f70a2"></path><path d="M3103,314L3027,362L3121,412Z" fill="#1d63a0" stroke="#1d63a0"></path><path d="M3103,314L3121,412L3150,467Z" fill="#14599d" stroke="#14599d"></path><path d="M-64,375L-69,482L43,348Z" fill="#93d8e1" stroke="#93d8e1"></path><path d="M43,348L-69,482L56,511Z" fill="#92c7d8" stroke="#92c7d8"></path><path d="M43,348L56,511L163,475Z" fill="#90c7d4" stroke="#90c7d4"></path><path d="M43,348L163,475L180,350Z" fill="#92dad9" stroke="#92dad9"></path><path d="M180,350L163,475L278,395Z" fill="#8cd4d4" stroke="#8cd4d4"></path><path d="M278,395L163,475L249,510Z" fill="#8dc0c9" stroke="#8dc0c9"></path><path d="M278,395L249,510L366,488Z" fill="#8cbec5" stroke="#8cbec5"></path><path d="M278,395L366,488L416,397Z" fill="#89cbc9" stroke="#89cbc9"></path><path d="M416,397L366,488L475,462Z" fill="#88c2c4" stroke="#88c2c4"></path><path d="M416,397L475,462L475,390Z" fill="#85ceca" stroke="#85ceca"></path><path d="M475,390L475,462L605,382Z" fill="#81cecb" stroke="#81cecb"></path><path d="M605,382L475,462L572,527Z" fill="#81bcc3" stroke="#81bcc3"></path><path d="M605,382L572,527L730,412Z" fill="#7cc1c6" stroke="#7cc1c6"></path><path d="M730,412L572,527L631,567Z" fill="#7daaba" stroke="#7daaba"></path><path d="M730,412L631,567L743,511Z" fill="#7aabbc" stroke="#7aabbc"></path><path d="M730,412L743,511L842,514Z" fill="#75afc0" stroke="#75afc0"></path><path d="M730,412L842,514L811,346Z" fill="#71c3ca" stroke="#71c3ca"></path><path d="M811,346L842,514L936,476Z" fill="#6bb9c7" stroke="#6bb9c7"></path><path d="M811,346L936,476L973,396Z" fill="#66c5ce" stroke="#66c5ce"></path><path d="M973,396L936,476L1035,472Z" fill="#61b3c7" stroke="#61b3c7"></path><path d="M973,396L1035,472L1081,350Z" fill="#5ac1cf" stroke="#5ac1cf"></path><path d="M1081,350L1035,472L1188,375Z" fill="#56c0d0" stroke="#56c0d0"></path><path d="M1188,375L1035,472L1168,515Z" fill="#52acc8" stroke="#52acc8"></path><path d="M1188,375L1168,515L1255,390Z" fill="#4bb3ce" stroke="#4bb3ce"></path><path d="M1255,390L1168,515L1298,478Z" fill="#49a5c8" stroke="#49a5c8"></path><path d="M1255,390L1298,478L1336,475Z" fill="#45a8cb" stroke="#45a8cb"></path><path d="M1255,390L1336,475L1387,424Z" fill="#41afcf" stroke="#41afcf"></path><path d="M1387,424L1336,475L1463,487Z" fill="#3ca0c9" stroke="#3ca0c9"></path><path d="M1387,424L1463,487L1501,402Z" fill="#37a8cf" stroke="#37a8cf"></path><path d="M1501,402L1463,487L1595,471Z" fill="#339fcc" stroke="#339fcc"></path><path d="M1501,402L1595,471L1589,410Z" fill="#30a7d1" stroke="#30a7d1"></path><path d="M1589,410L1595,471L1680,493Z" fill="#2e99cb" stroke="#2e99cb"></path><path d="M1589,410L1680,493L1684,354Z" fill="#2ca6d2" stroke="#2ca6d2"></path><path d="M1684,354L1680,493L1839,422Z" fill="#28a0d1" stroke="#28a0d1"></path><path d="M1839,422L1680,493L1813,533Z" fill="#2788c6" stroke="#2788c6"></path><path d="M1839,422L1813,533L1942,481Z" fill="#2385c6" stroke="#2385c6"></path><path d="M1839,422L1942,481L1928,407Z" fill="#2192cc" stroke="#2192cc"></path><path d="M1928,407L1942,481L2039,348Z" fill="#2197cf" stroke="#2197cf"></path><path d="M2039,348L1942,481L2004,522Z" fill="#2387c7" stroke="#2387c7"></path><path d="M2039,348L2004,522L2158,468Z" fill="#2384c6" stroke="#2384c6"></path><path d="M2039,348L2158,468L2169,365Z" fill="#2592cb" stroke="#2592cb"></path><path d="M2169,365L2158,468L2234,359Z" fill="#258dc9" stroke="#258dc9"></path><path d="M2234,359L2158,468L2248,498Z" fill="#247bc2" stroke="#247bc2"></path><path d="M2234,359L2248,498L2357,412Z" fill="#227ec2" stroke="#227ec2"></path><path d="M2357,412L2248,498L2352,485Z" fill="#236bb9" stroke="#236bb9"></path><path d="M2357,412L2352,485L2499,484Z" fill="#2068b6" stroke="#2068b6"></path><path d="M2357,412L2499,484L2495,381Z" fill="#1d71ba" stroke="#1d71ba"></path><path d="M2495,381L2499,484L2607,417Z" fill="#1b6bb6" stroke="#1b6bb6"></path><path d="M2607,417L2499,484L2567,505Z" fill="#1c5aad" stroke="#1c5aad"></path><path d="M2607,417L2567,505L2682,510Z" fill="#1a53a9" stroke="#1a53a9"></path><path d="M2607,417L2682,510L2681,373Z" fill="#1861af" stroke="#1861af"></path><path d="M2681,373L2682,510L2779,413Z" fill="#165dac" stroke="#165dac"></path><path d="M2779,413L2682,510L2793,522Z" fill="#1748a1" stroke="#1748a1"></path><path d="M2779,413L2793,522L2914,471Z" fill="#1448a0" stroke="#1448a0"></path><path d="M2779,413L2914,471L2944,400Z" fill="#1254a5" stroke="#1254a5"></path><path d="M2944,400L2914,471L3012,512Z" fill="#13429b" stroke="#13429b"></path><path d="M2944,400L3012,512L3027,362Z" fill="#1250a0" stroke="#1250a0"></path><path d="M3027,362L3012,512L3121,412Z" fill="#124f9c" stroke="#124f9c"></path><path d="M3121,412L3012,512L3150,467Z" fill="#134194" stroke="#134194"></path><path d="M-69,482L-64,682L-54,607Z" fill="#9192b9" stroke="#9192b9"></path><path d="M-69,482L-54,607L56,511Z" fill="#92a7c6" stroke="#92a7c6"></path><path d="M56,511L-54,607L54,612Z" fill="#9197b8" stroke="#9197b8"></path><path d="M56,511L54,612L140,615Z" fill="#8f95b4" stroke="#8f95b4"></path><path d="M56,511L140,615L163,475Z" fill="#8fa6be" stroke="#8fa6be"></path><path d="M163,475L140,615L249,510Z" fill="#8ea6bb" stroke="#8ea6bb"></path><path d="M249,510L140,615L265,610Z" fill="#8c95ad" stroke="#8c95ad"></path><path d="M249,510L265,610L367,597Z" fill="#8a96ab" stroke="#8a96ab"></path><path d="M249,510L367,597L366,488Z" fill="#8aa5b4" stroke="#8aa5b4"></path><path d="M366,488L367,597L499,592Z" fill="#879aaa" stroke="#879aaa"></path><path d="M366,488L499,592L475,462Z" fill="#86a9b6" stroke="#86a9b6"></path><path d="M475,462L499,592L572,527Z" fill="#83a3b3" stroke="#83a3b3"></path><path d="M572,527L499,592L631,567Z" fill="#7f95aa" stroke="#7f95aa"></path><path d="M743,511L631,567L723,607Z" fill="#7893ab" stroke="#7893ab"></path><path d="M743,511L723,607L802,566Z" fill="#7592ab" stroke="#7592ab"></path><path d="M743,511L802,566L842,514Z" fill="#729cb4" stroke="#729cb4"></path><path d="M842,514L802,566L951,578Z" fill="#6b91ae" stroke="#6b91ae"></path><path d="M842,514L951,578L936,476Z" fill="#679ab7" stroke="#679ab7"></path><path d="M936,476L951,578L1035,472Z" fill="#629dbb" stroke="#629dbb"></path><path d="M1035,472L951,578L1037,581Z" fill="#5e8fb2" stroke="#5e8fb2"></path><path d="M1035,472L1037,581L1142,569Z" fill="#578db3" stroke="#578db3"></path><path d="M1035,472L1142,569L1168,515Z" fill="#5494ba" stroke="#5494ba"></path><path d="M1168,515L1142,569L1239,618Z" fill="#4c80ad" stroke="#4c80ad"></path><path d="M1168,515L1239,618L1298,478Z" fill="#4989b6" stroke="#4989b6"></path><path d="M1298,478L1239,618L1380,592Z" fill="#427eb0" stroke="#427eb0"></path><path d="M1298,478L1380,592L1336,475Z" fill="#418ebd" stroke="#418ebd"></path><path d="M1336,475L1380,592L1463,487Z" fill="#3d8cbd" stroke="#3d8cbd"></path><path d="M1463,487L1380,592L1468,627Z" fill="#3778b0" stroke="#3778b0"></path><path d="M1463,487L1468,627L1593,581Z" fill="#3276b2" stroke="#3276b2"></path><path d="M1463,487L1593,581L1595,471Z" fill="#3188bf" stroke="#3188bf"></path><path d="M1595,471L1593,581L1680,493Z" fill="#2e83bf" stroke="#2e83bf"></path><path d="M1680,493L1593,581L1701,579Z" fill="#2b74b5" stroke="#2b74b5"></path><path d="M1680,493L1701,579L1813,533Z" fill="#2877b9" stroke="#2877b9"></path><path d="M1813,533L1701,579L1781,642Z" fill="#2563ab" stroke="#2563ab"></path><path d="M1813,533L1781,642L1909,611Z" fill="#215ba8" stroke="#215ba8"></path><path d="M1813,533L1909,611L1942,481Z" fill="#216cb6" stroke="#216cb6"></path><path d="M1942,481L1909,611L2004,522Z" fill="#2269b5" stroke="#2269b5"></path><path d="M2004,522L1909,611L2074,600Z" fill="#2158a9" stroke="#2158a9"></path><path d="M2004,522L2074,600L2158,468Z" fill="#2363b3" stroke="#2363b3"></path><path d="M2158,468L2074,600L2157,597Z" fill="#2257ab" stroke="#2257ab"></path><path d="M2158,468L2157,597L2248,498Z" fill="#245fb2" stroke="#245fb2"></path><path d="M2248,498L2157,597L2253,628Z" fill="#234aa3" stroke="#234aa3"></path><path d="M2248,498L2253,628L2334,567Z" fill="#2249a3" stroke="#2249a3"></path><path d="M2248,498L2334,567L2352,485Z" fill="#2259ae" stroke="#2259ae"></path><path d="M2352,485L2334,567L2499,484Z" fill="#2055ab" stroke="#2055ab"></path><path d="M2499,484L2334,567L2488,638Z" fill="#1d3f9c" stroke="#1d3f9c"></path><path d="M2499,484L2488,638L2567,505Z" fill="#1c419d" stroke="#1c419d"></path><path d="M2567,505L2488,638L2601,585Z" fill="#1a3393" stroke="#1a3393"></path><path d="M2567,505L2601,585L2682,510Z" fill="#193e9b" stroke="#193e9b"></path><path d="M2682,510L2601,585L2714,619Z" fill="#172d8e" stroke="#172d8e"></path><path d="M2682,510L2714,619L2783,576Z" fill="#152a8c" stroke="#152a8c"></path><path d="M2682,510L2783,576L2793,522Z" fill="#153494" stroke="#153494"></path><path d="M2793,522L2783,576L2928,593Z" fill="#122488" stroke="#122488"></path><path d="M2793,522L2928,593L2914,471Z" fill="#132e90" stroke="#132e90"></path><path d="M2914,471L2928,593L3012,512Z" fill="#132b8d" stroke="#132b8d"></path><path d="M3012,512L2928,593L2993,605Z" fill="#121a80" stroke="#121a80"></path><path d="M3012,512L2993,605L3117,644Z" fill="#111478" stroke="#111478"></path><path d="M3012,512L3117,644L3150,467Z" fill="#132582" stroke="#132582"></path><path d="M3150,467L3117,644L3106,733Z" fill="#100a6d" stroke="#100a6d"></path><path d="M-54,607L-64,682L54,612Z" fill="#8f82ab" stroke="#8f82ab"></path><path d="M54,612L-64,682L51,698Z" fill="#8e80a2" stroke="#8e80a2"></path><path d="M54,612L51,698L139,683Z" fill="#8c7f9e" stroke="#8c7f9e"></path><path d="M54,612L139,683L140,615Z" fill="#8d80a4" stroke="#8d80a4"></path><path d="M140,615L139,683L265,610Z" fill="#8b80a0" stroke="#8b80a0"></path><path d="M265,610L139,683L311,712Z" fill="#897e95" stroke="#897e95"></path><path d="M265,610L311,712L367,597Z" fill="#887d98" stroke="#887d98"></path><path d="M367,597L311,712L390,699Z" fill="#867c8e" stroke="#867c8e"></path><path d="M367,597L390,699L475,698Z" fill="#837c8e" stroke="#837c8e"></path><path d="M367,597L475,698L499,592Z" fill="#837f98" stroke="#837f98"></path><path d="M499,592L475,698L634,714Z" fill="#7d798e" stroke="#7d798e"></path><path d="M499,592L634,714L631,567Z" fill="#7c7e9a" stroke="#7c7e9a"></path><path d="M631,567L634,714L719,680Z" fill="#777792" stroke="#777792"></path><path d="M631,567L719,680L723,607Z" fill="#777e9c" stroke="#777e9c"></path><path d="M723,607L719,680L831,683Z" fill="#727492" stroke="#727492"></path><path d="M723,607L831,683L802,566Z" fill="#707b9c" stroke="#707b9c"></path><path d="M802,566L831,683L904,686Z" fill="#6a7196" stroke="#6a7196"></path><path d="M802,566L904,686L951,578Z" fill="#677ba0" stroke="#677ba0"></path><path d="M951,578L904,686L1037,581Z" fill="#5f769f" stroke="#5f769f"></path><path d="M1037,581L904,686L1062,738Z" fill="#5a6b91" stroke="#5a6b91"></path><path d="M1037,581L1062,738L1142,711Z" fill="#52688f" stroke="#52688f"></path><path d="M1037,581L1142,711L1142,569Z" fill="#516f9f" stroke="#516f9f"></path><path d="M1142,569L1142,711L1239,618Z" fill="#4b689c" stroke="#4b689c"></path><path d="M1239,618L1142,711L1251,751Z" fill="#46648d" stroke="#46648d"></path><path d="M1239,618L1251,751L1402,693Z" fill="#40618f" stroke="#40618f"></path><path d="M1239,618L1402,693L1380,592Z" fill="#3d629e" stroke="#3d629e"></path><path d="M1380,592L1402,693L1468,627Z" fill="#375f9e" stroke="#375f9e"></path><path d="M1468,627L1402,693L1449,726Z" fill="#345d93" stroke="#345d93"></path><path d="M1468,627L1449,726L1561,738Z" fill="#2f5b8f" stroke="#2f5b8f"></path><path d="M1468,627L1561,738L1593,581Z" fill="#2e599c" stroke="#2e599c"></path><path d="M1593,581L1561,738L1736,715Z" fill="#295594" stroke="#295594"></path><path d="M1593,581L1736,715L1701,579Z" fill="#2858a1" stroke="#2858a1"></path><path d="M1701,579L1736,715L1781,642Z" fill="#244f9b" stroke="#244f9b"></path><path d="M1781,642L1736,715L1811,731Z" fill="#214e8e" stroke="#214e8e"></path><path d="M1781,642L1811,731L1909,611Z" fill="#1f4b97" stroke="#1f4b97"></path><path d="M1909,611L1811,731L1956,694Z" fill="#1d4891" stroke="#1d4891"></path><path d="M1909,611L1956,694L2074,600Z" fill="#1f449a" stroke="#1f449a"></path><path d="M2074,600L1956,694L2062,698Z" fill="#1e3e91" stroke="#1e3e91"></path><path d="M2074,600L2062,698L2171,688Z" fill="#1f398f" stroke="#1f398f"></path><path d="M2074,600L2171,688L2157,597Z" fill="#203c97" stroke="#203c97"></path><path d="M2157,597L2171,688L2253,628Z" fill="#203493" stroke="#203493"></path><path d="M2253,628L2171,688L2294,689Z" fill="#203089" stroke="#203089"></path><path d="M2253,628L2294,689L2334,567Z" fill="#1f3191" stroke="#1f3191"></path><path d="M2334,567L2294,689L2359,722Z" fill="#1d2a87" stroke="#1d2a87"></path><path d="M2334,567L2359,722L2488,638Z" fill="#1d2689" stroke="#1d2689"></path><path d="M2488,638L2359,722L2484,717Z" fill="#192279" stroke="#192279"></path><path d="M2488,638L2484,717L2557,749Z" fill="#171e73" stroke="#171e73"></path><path d="M2488,638L2557,749L2601,585Z" fill="#171b7d" stroke="#171b7d"></path><path d="M2601,585L2557,749L2672,676Z" fill="#151777" stroke="#151777"></path><path d="M2601,585L2672,676L2714,619Z" fill="#151980" stroke="#151980"></path><path d="M2714,619L2672,676L2833,683Z" fill="#110f74" stroke="#110f74"></path><path d="M2714,619L2833,683L2783,576Z" fill="#12117a" stroke="#12117a"></path><path d="M2783,576L2833,683L2928,593Z" fill="#10107a" stroke="#10107a"></path><path d="M2928,593L2833,683L2898,709Z" fill="#0f056c" stroke="#0f056c"></path><path d="M2928,593L2898,709L2993,605Z" fill="#100370" stroke="#100370"></path><path d="M2993,605L2898,709L3031,682Z" fill="#0f0066" stroke="#0f0066"></path><path d="M2993,605L3031,682L3117,644Z" fill="#0f0069" stroke="#0f0069"></path><path d="M3117,644L3031,682L3106,733Z" fill="#0e005c" stroke="#0e005c"></path><path d="M51,698L311,712L139,683Z" fill="#897e90" stroke="#897e90"></path><path d="M311,712L1251,751L1062,738Z" fill="#64707e" stroke="#64707e"></path><path d="M311,712L1062,738L634,714Z" fill="#757680" stroke="#757680"></path><path d="M311,712L634,714L475,698Z" fill="#7f7a83" stroke="#7f7a83"></path><path d="M311,712L475,698L390,699Z" fill="#837c84" stroke="#837c84"></path><path d="M634,714L1062,738L831,683Z" fill="#687184" stroke="#687184"></path><path d="M634,714L831,683L719,680Z" fill="#727588" stroke="#727588"></path><path d="M831,683L1062,738L904,686Z" fill="#606e87" stroke="#606e87"></path><path d="M1062,738L1251,751L1142,711Z" fill="#4a6681" stroke="#4a6681"></path><path d="M1251,751L2557,749L1561,738Z" fill="#1f4d81" stroke="#1f4d81"></path><path d="M1251,751L1561,738L1449,726Z" fill="#345e83" stroke="#345e83"></path><path d="M1251,751L1449,726L1402,693Z" fill="#395f87" stroke="#395f87"></path><path d="M1561,738L2557,749L1811,731Z" fill="#1c427f" stroke="#1c427f"></path><path d="M1561,738L1811,731L1736,715Z" fill="#245186" stroke="#245186"></path><path d="M1811,731L2557,749L2359,722Z" fill="#1e3077" stroke="#1e3077"></path><path d="M1811,731L2359,722L2062,698Z" fill="#1d3b81" stroke="#1d3b81"></path><path d="M1811,731L2062,698L1956,694Z" fill="#1d4488" stroke="#1d4488"></path><path d="M2062,698L2359,722L2171,688Z" fill="#1e3381" stroke="#1e3381"></path><path d="M2171,688L2359,722L2294,689Z" fill="#1e2e7f" stroke="#1e2e7f"></path><path d="M2359,722L2557,749L2484,717Z" fill="#17216e" stroke="#17216e"></path><path d="M2557,749L3106,733L2898,709Z" fill="#0d075b" stroke="#0d075b"></path><path d="M2557,749L2898,709L2833,683Z" fill="#0f0d64" stroke="#0f0d64"></path><path d="M2557,749L2833,683L2672,676Z" fill="#12126b" stroke="#12126b"></path><path d="M2898,709L3106,733L3031,682Z" fill="#0d005a" stroke="#0d005a"></path></g></svg>